<?xml version="1.0" standalone="no"?>
<!DOCTYPE svg PUBLIC "-//W3C//DTD SVG 20010904//EN"
 "http://www.w3.org/TR/2001/REC-SVG-20010904/DTD/svg10.dtd">
<svg version="1.0" xmlns="http://www.w3.org/2000/svg"
 width="700.000000pt" height="700.000000pt" viewBox="0 0 700.000000 700.000000"
 preserveAspectRatio="xMidYMid meet">
<metadata>
Created by potrace 1.14, written by Peter Selinger 2001-2017
</metadata>
<g transform="translate(0.000000,700.000000) scale(0.100000,-0.100000)"
fill="#000000" stroke="none">
<path d="M3500 5251 l0 -1751 -1751 0 -1751 0 6 -142 c4 -79 8 -156 10 -173 4
-29 14 -119 21 -180 6 -58 25 -159 50 -275 54 -251 162 -550 288 -800 61 -122
169 -312 187 -330 3 -3 31 -43 62 -90 204 -305 526 -631 848 -859 63 -45 120
-86 127 -91 7 -6 15 -10 17 -10 3 0 37 -20 75 -45 93 -59 331 -181 461 -234
254 -106 563 -194 795 -227 22 -3 47 -7 55 -9 8 -2 47 -7 85 -11 39 -3 84 -8
100 -10 17 -2 94 -6 173 -10 l142 -6 0 1751 0 1751 1751 0 1751 0 -7 162 c-3
89 -8 165 -10 168 -1 3 -6 41 -10 85 -3 43 -8 82 -10 85 -2 3 -6 30 -10 60 -4
30 -22 123 -40 205 -53 232 -102 386 -197 609 -389 915 -1158 1626 -2104 1945
-171 57 -416 117 -554 136 -19 3 -46 7 -60 10 -13 2 -52 7 -86 11 -33 3 -74 7
-90 9 -16 2 -95 7 -176 10 l-148 6 0 -1750z"/>
</g>
</svg>
